<svg xmlns="http://www.w3.org/2000/svg" width="580" height="128" fill="none"><g clip-path="url(#a)"><path fill="url(#b)" fill-rule="evenodd" d="M.471 11.56c0-5.758 4.668-10.426 10.427-10.426h90.367c5.758 0 10.427 4.668 10.427 10.427v14.895c0 5.759-4.669 10.427-10.427 10.427H10.898C5.139 36.883.47 32.215.47 26.456zm0 44.688c0-5.759 4.668-10.427 10.427-10.427h90.367c5.758 0 10.427 4.668 10.427 10.427v14.895c0 5.759-4.669 10.427-10.427 10.427H10.898C5.139 81.57.47 76.902.47 71.143zm10.427 34.26C5.139 90.508.47 95.176.47 100.934v14.895c0 5.759 4.668 10.427 10.427 10.427h41.708c5.758 0 10.427-4.668 10.427-10.427v-14.895c0-5.76-4.669-10.428-10.427-10.428z" clip-rule="evenodd"/><path fill="#000" d="M144.305 31.155v53.052c0 1.71.959 2.67 2.67 2.67h6.506c1.71 0 2.669-.96 2.669-2.67V63.23h19.019c1.71 0 2.669-.96 2.669-2.67v-4.838c0-1.71-.959-2.67-2.669-2.67H156.15V38.664h21.021c1.71 0 2.669-.96 2.669-2.67v-4.838c0-1.71-.959-2.67-2.669-2.67h-30.196c-1.711 0-2.67.96-2.67 2.67m40.074 34.117c0 12.638 10.26 22.606 23.982 22.606 13.764 0 23.982-9.968 23.982-22.606 0-12.637-10.218-22.605-23.982-22.605-13.722 0-23.982 9.968-23.982 22.605m11.512 0c0-7.007 5.422-12.47 12.47-12.47 7.091 0 12.513 5.463 12.513 12.47 0 7.049-5.422 12.47-12.513 12.47-7.048 0-12.47-5.421-12.47-12.47m66.244-12.47q.813 0 1.752.125c1.835.292 2.919-.376 3.086-2.17l.375-4.837c.126-1.543-.5-2.795-2.043-3.087-.542-.125-1.126-.166-1.71-.166-4.963 0-8.801 2.627-11.553 6.297v-2.627c0-1.71-.96-2.67-2.67-2.67h-6.131c-1.71 0-2.669.96-2.669 2.67v37.87c0 1.71.959 2.67 2.669 2.67h6.131c1.71 0 2.67-.96 2.67-2.67V63.98c0-6.715 4.588-11.178 10.093-11.178m64.573-10.135c-5.881 0-10.928 3.378-13.889 8.716-2.794-5.422-8.175-8.716-14.514-8.716-4.713 0-8.884 2.168-11.887 5.755v-2.085c0-1.71-.959-2.67-2.669-2.67h-6.131c-1.71 0-2.67.96-2.67 2.67v37.87c0 1.71.96 2.67 2.67 2.67h6.131c1.71 0 2.669-.96 2.669-2.67V63.354c0-6.507 4.505-10.553 9.384-10.553 4.421 0 7.549 3.754 7.549 8.55v22.856c0 1.71.96 2.67 2.67 2.67h6.131c1.71 0 2.669-.96 2.669-2.67V63.354c0-6.507 4.505-10.553 9.384-10.553 4.421 0 7.549 3.754 7.549 8.55v22.856c0 1.71.96 2.67 2.67 2.67h6.131c1.71 0 2.669-.96 2.669-2.67V60.143c0-10.469-7.215-17.475-16.516-17.475m27.811 32.907-1.293 1.46c-1.084 1.21-1.209 2.502-.083 3.753 4.087 4.63 8.842 7.09 14.556 7.09 10.719 0 17.1-5.713 17.1-13.346 0-7.299-4.588-11.886-14.598-13.93-4.838-1.001-6.882-2.878-6.882-5.172 0-2.21 2.253-3.587 4.964-3.587 2.127 0 3.712.834 4.671 2.378.792 1.334 1.501 2.085 3.045 2.085h5.505c1.877 0 2.92-1.168 2.336-2.961-2.169-6.548-7.591-10.677-16.141-10.677-9.384 0-15.599 5.338-15.599 12.595 0 7.174 4.671 11.929 14.056 13.847 5.588 1.126 7.424 2.711 7.424 5.297 0 2.628-2.378 4.296-6.34 4.296-3.42 0-6.256-1.168-8.967-3.337-1.377-1.126-2.628-1.084-3.754.209m85.053-10.302c0-12.637-8.8-22.605-20.854-22.605-6.047 0-10.969 2.335-14.389 6.172v-2.502c0-1.71-.959-2.67-2.669-2.67h-6.006c-1.71 0-2.669.96-2.669 2.67v57.223c0 1.71.959 2.669 2.669 2.669h6.006c1.71 0 2.669-.959 2.669-2.669V81.705c3.42 3.837 8.342 6.173 14.389 6.173 12.054 0 20.854-9.968 20.854-22.606m-11.511 0c0 7.049-5.172 12.47-11.803 12.47-6.674 0-11.929-5.421-11.929-12.47 0-7.007 5.255-12.47 11.929-12.47 6.631 0 11.803 5.463 11.803 12.47m41.31-12.47q.813 0 1.751.125c1.836.292 2.92-.376 3.087-2.17l.375-4.837c.125-1.543-.5-2.795-2.044-3.087-.542-.125-1.126-.166-1.71-.166-4.963 0-8.8 2.627-11.553 6.297v-2.627c0-1.71-.959-2.67-2.669-2.67h-6.131c-1.71 0-2.669.96-2.669 2.67v37.87c0 1.71.959 2.67 2.669 2.67h6.131c1.71 0 2.669-.96 2.669-2.67V63.98c0-6.715 4.588-11.178 10.094-11.178m20.268 15.89h31.573c1.627 0 2.711-.792 2.878-2.419.042-.584.083-1.21.083-1.752 0-12.053-9.426-21.854-22.647-21.854-13.388 0-23.481 9.968-23.481 22.605s9.801 22.606 24.565 22.606c7.883 0 13.639-2.961 18.143-7.257 1.21-1.21 1.127-2.586-.083-3.796l-2.044-2.043c-1.168-1.168-2.46-1.21-3.795-.167-3.462 2.71-7.299 4.129-12.262 4.129-6.924 0-11.929-4.046-12.93-10.052m11.804-16.891c5.589 0 9.676 3.586 10.927 8.716h-22.439c1.544-5.255 6.09-8.716 11.512-8.716m39.761 16.891h31.573c1.626 0 2.711-.792 2.878-2.419a26 26 0 0 0 .083-1.752c0-12.053-9.426-21.854-22.647-21.854-13.389 0-23.482 9.968-23.482 22.605s9.801 22.606 24.566 22.606c7.883 0 13.638-2.961 18.143-7.257 1.209-1.21 1.126-2.586-.084-3.796l-2.043-2.043c-1.168-1.168-2.461-1.21-3.796-.167-3.461 2.71-7.298 4.129-12.262 4.129-6.923 0-11.928-4.046-12.929-10.052m11.803-16.891c5.589 0 9.676 3.586 10.928 8.716h-22.439c1.543-5.255 6.089-8.716 11.511-8.716"/></g><defs><linearGradient id="b" x1=".471" x2="125.595" y1="1.134" y2="126.257" gradientUnits="userSpaceOnUse"><stop stop-color="#EA1330"/><stop offset="1" stop-color="#AF041A"/></linearGradient><clipPath id="a"><path fill="#fff" d="M0 0h580v128H0z"/></clipPath></defs></svg>